<svg xmlns="http://www.w3.org/2000/svg" viewBox="0 0 330.0 762.1" fill="none" stroke="#0d9488" stroke-width="0.8">
  <defs>
    <linearGradient id="fade" x1="0" y1="0" x2="1" y2="0">
      <stop offset="0%" stop-color="white" stop-opacity="0"/>
      <stop offset="50%" stop-color="white" stop-opacity="0.4"/>
      <stop offset="100%" stop-color="white" stop-opacity="1"/>
    </linearGradient>
    <mask id="fade-mask">
      <rect width="100%" height="100%" fill="url(#fade)"/>
    </mask>
  </defs>
  <g mask="url(#fade-mask)">
    <line x1="22.0" y1="0.0" x2="0.0" y2="38.1"/>
    <line x1="0.0" y1="38.1" x2="44.0" y2="38.1"/>
    <line x1="44.0" y1="38.1" x2="22.0" y2="0.0"/>
    <line x1="22.0" y1="0.0" x2="66.0" y2="0.0"/>
    <line x1="66.0" y1="0.0" x2="44.0" y2="38.1"/>
    <line x1="44.0" y1="38.1" x2="88.0" y2="38.1"/>
    <line x1="88.0" y1="38.1" x2="66.0" y2="0.0"/>
    <line x1="66.0" y1="0.0" x2="110.0" y2="0.0"/>
    <line x1="110.0" y1="0.0" x2="88.0" y2="38.1"/>
    <line x1="88.0" y1="38.1" x2="132.0" y2="38.1"/>
    <line x1="132.0" y1="38.1" x2="110.0" y2="0.0"/>
    <line x1="110.0" y1="0.0" x2="154.0" y2="0.0"/>
    <line x1="154.0" y1="0.0" x2="132.0" y2="38.1"/>
    <line x1="132.0" y1="38.1" x2="176.0" y2="38.1"/>
    <line x1="176.0" y1="38.1" x2="154.0" y2="0.0"/>
    <line x1="154.0" y1="0.0" x2="198.0" y2="0.0"/>
    <line x1="198.0" y1="0.0" x2="176.0" y2="38.1"/>
    <line x1="176.0" y1="38.1" x2="220.0" y2="38.1"/>
    <line x1="220.0" y1="38.1" x2="198.0" y2="0.0"/>
    <line x1="198.0" y1="0.0" x2="242.0" y2="0.0"/>
    <line x1="242.0" y1="0.0" x2="220.0" y2="38.1"/>
    <line x1="220.0" y1="38.1" x2="264.0" y2="38.1"/>
    <line x1="264.0" y1="38.1" x2="242.0" y2="0.0"/>
    <line x1="242.0" y1="0.0" x2="286.0" y2="0.0"/>
    <line x1="286.0" y1="0.0" x2="264.0" y2="38.1"/>
    <line x1="264.0" y1="38.1" x2="308.0" y2="38.1"/>
    <line x1="308.0" y1="38.1" x2="286.0" y2="0.0"/>
    <line x1="286.0" y1="0.0" x2="330.0" y2="0.0"/>
    <line x1="330.0" y1="0.0" x2="308.0" y2="38.1"/>
    <line x1="22.0" y1="38.1" x2="0.0" y2="76.2"/>
    <line x1="0.0" y1="76.2" x2="44.0" y2="76.2"/>
    <line x1="44.0" y1="76.2" x2="22.0" y2="38.1"/>
    <line x1="22.0" y1="38.1" x2="66.0" y2="38.1"/>
    <line x1="66.0" y1="38.1" x2="44.0" y2="76.2"/>
    <line x1="44.0" y1="76.2" x2="88.0" y2="76.2"/>
    <line x1="88.0" y1="76.2" x2="66.0" y2="38.1"/>
    <line x1="66.0" y1="38.1" x2="110.0" y2="38.1"/>
    <line x1="110.0" y1="38.1" x2="88.0" y2="76.2"/>
    <line x1="88.0" y1="76.2" x2="132.0" y2="76.2"/>
    <line x1="132.0" y1="76.2" x2="110.0" y2="38.1"/>
    <line x1="110.0" y1="38.1" x2="154.0" y2="38.1"/>
    <line x1="154.0" y1="38.1" x2="132.0" y2="76.2"/>
    <line x1="132.0" y1="76.2" x2="176.0" y2="76.2"/>
    <line x1="176.0" y1="76.2" x2="154.0" y2="38.1"/>
    <line x1="154.0" y1="38.1" x2="198.0" y2="38.1"/>
    <line x1="198.0" y1="38.1" x2="176.0" y2="76.2"/>
    <line x1="176.0" y1="76.2" x2="220.0" y2="76.2"/>
    <line x1="220.0" y1="76.2" x2="198.0" y2="38.1"/>
    <line x1="198.0" y1="38.1" x2="242.0" y2="38.1"/>
    <line x1="242.0" y1="38.1" x2="220.0" y2="76.2"/>
    <line x1="220.0" y1="76.2" x2="264.0" y2="76.2"/>
    <line x1="264.0" y1="76.2" x2="242.0" y2="38.1"/>
    <line x1="242.0" y1="38.1" x2="286.0" y2="38.1"/>
    <line x1="286.0" y1="38.1" x2="264.0" y2="76.2"/>
    <line x1="264.0" y1="76.2" x2="308.0" y2="76.2"/>
    <line x1="308.0" y1="76.2" x2="286.0" y2="38.1"/>
    <line x1="286.0" y1="38.1" x2="330.0" y2="38.1"/>
    <line x1="330.0" y1="38.1" x2="308.0" y2="76.2"/>
    <line x1="22.0" y1="76.2" x2="0.0" y2="114.3"/>
    <line x1="0.0" y1="114.3" x2="44.0" y2="114.3"/>
    <line x1="44.0" y1="114.3" x2="22.0" y2="76.2"/>
    <line x1="22.0" y1="76.2" x2="66.0" y2="76.2"/>
    <line x1="66.0" y1="76.2" x2="44.0" y2="114.3"/>
    <line x1="44.0" y1="114.3" x2="88.0" y2="114.3"/>
    <line x1="88.0" y1="114.3" x2="66.0" y2="76.2"/>
    <line x1="66.0" y1="76.2" x2="110.0" y2="76.2"/>
    <line x1="110.0" y1="76.2" x2="88.0" y2="114.3"/>
    <line x1="88.0" y1="114.3" x2="132.0" y2="114.3"/>
    <line x1="132.0" y1="114.3" x2="110.0" y2="76.2"/>
    <line x1="110.0" y1="76.2" x2="154.0" y2="76.2"/>
    <line x1="154.0" y1="76.2" x2="132.0" y2="114.3"/>
    <line x1="132.0" y1="114.3" x2="176.0" y2="114.3"/>
    <line x1="176.0" y1="114.3" x2="154.0" y2="76.2"/>
    <line x1="154.0" y1="76.2" x2="198.0" y2="76.2"/>
    <line x1="198.0" y1="76.2" x2="176.0" y2="114.3"/>
    <line x1="176.0" y1="114.3" x2="220.0" y2="114.3"/>
    <line x1="220.0" y1="114.3" x2="198.0" y2="76.2"/>
    <line x1="198.0" y1="76.2" x2="242.0" y2="76.2"/>
    <line x1="242.0" y1="76.2" x2="220.0" y2="114.3"/>
    <line x1="220.0" y1="114.3" x2="264.0" y2="114.3"/>
    <line x1="264.0" y1="114.3" x2="242.0" y2="76.2"/>
    <line x1="242.0" y1="76.2" x2="286.0" y2="76.2"/>
    <line x1="286.0" y1="76.2" x2="264.0" y2="114.3"/>
    <line x1="264.0" y1="114.3" x2="308.0" y2="114.3"/>
    <line x1="308.0" y1="114.3" x2="286.0" y2="76.2"/>
    <line x1="286.0" y1="76.2" x2="330.0" y2="76.2"/>
    <line x1="330.0" y1="76.2" x2="308.0" y2="114.3"/>
    <line x1="22.0" y1="114.3" x2="0.0" y2="152.4"/>
    <line x1="0.0" y1="152.4" x2="44.0" y2="152.4"/>
    <line x1="44.0" y1="152.4" x2="22.0" y2="114.3"/>
    <line x1="22.0" y1="114.3" x2="66.0" y2="114.3"/>
    <line x1="66.0" y1="114.3" x2="44.0" y2="152.4"/>
    <line x1="44.0" y1="152.4" x2="88.0" y2="152.4"/>
    <line x1="88.0" y1="152.4" x2="66.0" y2="114.3"/>
    <line x1="66.0" y1="114.3" x2="110.0" y2="114.3"/>
    <line x1="110.0" y1="114.3" x2="88.0" y2="152.4"/>
    <line x1="88.0" y1="152.4" x2="132.0" y2="152.4"/>
    <line x1="132.0" y1="152.4" x2="110.0" y2="114.3"/>
    <line x1="110.0" y1="114.3" x2="154.0" y2="114.3"/>
    <line x1="154.0" y1="114.3" x2="132.0" y2="152.4"/>
    <line x1="132.0" y1="152.4" x2="176.0" y2="152.4"/>
    <line x1="176.0" y1="152.4" x2="154.0" y2="114.3"/>
    <line x1="154.0" y1="114.3" x2="198.0" y2="114.3"/>
    <line x1="198.0" y1="114.3" x2="176.0" y2="152.4"/>
    <line x1="176.0" y1="152.4" x2="220.0" y2="152.4"/>
    <line x1="220.0" y1="152.4" x2="198.0" y2="114.3"/>
    <line x1="198.0" y1="114.3" x2="242.0" y2="114.3"/>
    <line x1="242.0" y1="114.3" x2="220.0" y2="152.4"/>
    <line x1="220.0" y1="152.4" x2="264.0" y2="152.4"/>
    <line x1="264.0" y1="152.4" x2="242.0" y2="114.3"/>
    <line x1="242.0" y1="114.3" x2="286.0" y2="114.3"/>
    <line x1="286.0" y1="114.3" x2="264.0" y2="152.4"/>
    <line x1="264.0" y1="152.4" x2="308.0" y2="152.4"/>
    <line x1="308.0" y1="152.4" x2="286.0" y2="114.3"/>
    <line x1="286.0" y1="114.3" x2="330.0" y2="114.3"/>
    <line x1="330.0" y1="114.3" x2="308.0" y2="152.4"/>
    <line x1="22.0" y1="152.4" x2="0.0" y2="190.5"/>
    <line x1="0.0" y1="190.5" x2="44.0" y2="190.5"/>
    <line x1="44.0" y1="190.5" x2="22.0" y2="152.4"/>
    <line x1="22.0" y1="152.4" x2="66.0" y2="152.4"/>
    <line x1="66.0" y1="152.4" x2="44.0" y2="190.5"/>
    <line x1="44.0" y1="190.5" x2="88.0" y2="190.5"/>
    <line x1="88.0" y1="190.5" x2="66.0" y2="152.4"/>
    <line x1="66.0" y1="152.4" x2="110.0" y2="152.4"/>
    <line x1="110.0" y1="152.4" x2="88.0" y2="190.5"/>
    <line x1="88.0" y1="190.5" x2="132.0" y2="190.5"/>
    <line x1="132.0" y1="190.5" x2="110.0" y2="152.4"/>
    <line x1="110.0" y1="152.4" x2="154.0" y2="152.4"/>
    <line x1="154.0" y1="152.4" x2="132.0" y2="190.5"/>
    <line x1="132.0" y1="190.5" x2="176.0" y2="190.5"/>
    <line x1="176.0" y1="190.5" x2="154.0" y2="152.4"/>
    <line x1="154.0" y1="152.4" x2="198.0" y2="152.4"/>
    <line x1="198.0" y1="152.4" x2="176.0" y2="190.5"/>
    <line x1="176.0" y1="190.5" x2="220.0" y2="190.5"/>
    <line x1="220.0" y1="190.5" x2="198.0" y2="152.4"/>
    <line x1="198.0" y1="152.4" x2="242.0" y2="152.4"/>
    <line x1="242.0" y1="152.4" x2="220.0" y2="190.5"/>
    <line x1="220.0" y1="190.5" x2="264.0" y2="190.5"/>
    <line x1="264.0" y1="190.5" x2="242.0" y2="152.4"/>
    <line x1="242.0" y1="152.4" x2="286.0" y2="152.4"/>
    <line x1="286.0" y1="152.4" x2="264.0" y2="190.5"/>
    <line x1="264.0" y1="190.5" x2="308.0" y2="190.5"/>
    <line x1="308.0" y1="190.5" x2="286.0" y2="152.4"/>
    <line x1="286.0" y1="152.4" x2="330.0" y2="152.4"/>
    <line x1="330.0" y1="152.4" x2="308.0" y2="190.5"/>
    <line x1="22.0" y1="190.5" x2="0.0" y2="228.6"/>
    <line x1="0.0" y1="228.6" x2="44.0" y2="228.6"/>
    <line x1="44.0" y1="228.6" x2="22.0" y2="190.5"/>
    <line x1="22.0" y1="190.5" x2="66.0" y2="190.5"/>
    <line x1="66.0" y1="190.5" x2="44.0" y2="228.6"/>
    <line x1="44.0" y1="228.6" x2="88.0" y2="228.6"/>
    <line x1="88.0" y1="228.6" x2="66.0" y2="190.5"/>
    <line x1="66.0" y1="190.5" x2="110.0" y2="190.5"/>
    <line x1="110.0" y1="190.5" x2="88.0" y2="228.6"/>
    <line x1="88.0" y1="228.6" x2="132.0" y2="228.6"/>
    <line x1="132.0" y1="228.6" x2="110.0" y2="190.5"/>
    <line x1="110.0" y1="190.5" x2="154.0" y2="190.5"/>
    <line x1="154.0" y1="190.5" x2="132.0" y2="228.6"/>
    <line x1="132.0" y1="228.6" x2="176.0" y2="228.6"/>
    <line x1="176.0" y1="228.6" x2="154.0" y2="190.5"/>
    <line x1="154.0" y1="190.5" x2="198.0" y2="190.5"/>
    <line x1="198.0" y1="190.5" x2="176.0" y2="228.6"/>
    <line x1="176.0" y1="228.6" x2="220.0" y2="228.6"/>
    <line x1="220.0" y1="228.6" x2="198.0" y2="190.5"/>
    <line x1="198.0" y1="190.5" x2="242.0" y2="190.5"/>
    <line x1="242.0" y1="190.5" x2="220.0" y2="228.6"/>
    <line x1="220.0" y1="228.6" x2="264.0" y2="228.6"/>
    <line x1="264.0" y1="228.6" x2="242.0" y2="190.5"/>
    <line x1="242.0" y1="190.5" x2="286.0" y2="190.5"/>
    <line x1="286.0" y1="190.5" x2="264.0" y2="228.6"/>
    <line x1="264.0" y1="228.6" x2="308.0" y2="228.6"/>
    <line x1="308.0" y1="228.6" x2="286.0" y2="190.5"/>
    <line x1="286.0" y1="190.5" x2="330.0" y2="190.5"/>
    <line x1="330.0" y1="190.5" x2="308.0" y2="228.6"/>
    <line x1="22.0" y1="228.6" x2="0.0" y2="266.7"/>
    <line x1="0.0" y1="266.7" x2="44.0" y2="266.7"/>
    <line x1="44.0" y1="266.7" x2="22.0" y2="228.6"/>
    <line x1="22.0" y1="228.6" x2="66.0" y2="228.6"/>
    <line x1="66.0" y1="228.6" x2="44.0" y2="266.7"/>
    <line x1="44.0" y1="266.7" x2="88.0" y2="266.7"/>
    <line x1="88.0" y1="266.7" x2="66.0" y2="228.6"/>
    <line x1="66.0" y1="228.6" x2="110.0" y2="228.6"/>
    <line x1="110.0" y1="228.6" x2="88.0" y2="266.7"/>
    <line x1="88.0" y1="266.7" x2="132.0" y2="266.7"/>
    <line x1="132.0" y1="266.7" x2="110.0" y2="228.6"/>
    <line x1="110.0" y1="228.6" x2="154.0" y2="228.6"/>
    <line x1="154.0" y1="228.6" x2="132.0" y2="266.7"/>
    <line x1="132.0" y1="266.7" x2="176.0" y2="266.7"/>
    <line x1="176.0" y1="266.7" x2="154.0" y2="228.6"/>
    <line x1="154.0" y1="228.6" x2="198.0" y2="228.6"/>
    <line x1="198.0" y1="228.6" x2="176.0" y2="266.7"/>
    <line x1="176.0" y1="266.7" x2="220.0" y2="266.7"/>
    <line x1="220.0" y1="266.7" x2="198.0" y2="228.6"/>
    <line x1="198.0" y1="228.6" x2="242.0" y2="228.6"/>
    <line x1="242.0" y1="228.6" x2="220.0" y2="266.7"/>
    <line x1="220.0" y1="266.7" x2="264.0" y2="266.7"/>
    <line x1="264.0" y1="266.7" x2="242.0" y2="228.6"/>
    <line x1="242.0" y1="228.6" x2="286.0" y2="228.6"/>
    <line x1="286.0" y1="228.6" x2="264.0" y2="266.7"/>
    <line x1="264.0" y1="266.7" x2="308.0" y2="266.7"/>
    <line x1="308.0" y1="266.7" x2="286.0" y2="228.6"/>
    <line x1="286.0" y1="228.6" x2="330.0" y2="228.6"/>
    <line x1="330.0" y1="228.6" x2="308.0" y2="266.7"/>
    <line x1="22.0" y1="266.7" x2="0.0" y2="304.8"/>
    <line x1="0.0" y1="304.8" x2="44.0" y2="304.8"/>
    <line x1="44.0" y1="304.8" x2="22.0" y2="266.7"/>
    <line x1="22.0" y1="266.7" x2="66.0" y2="266.7"/>
    <line x1="66.0" y1="266.7" x2="44.0" y2="304.8"/>
    <line x1="44.0" y1="304.8" x2="88.0" y2="304.8"/>
    <line x1="88.0" y1="304.8" x2="66.0" y2="266.7"/>
    <line x1="66.0" y1="266.7" x2="110.0" y2="266.7"/>
    <line x1="110.0" y1="266.7" x2="88.0" y2="304.8"/>
    <line x1="88.0" y1="304.8" x2="132.0" y2="304.8"/>
    <line x1="132.0" y1="304.8" x2="110.0" y2="266.7"/>
    <line x1="110.0" y1="266.7" x2="154.0" y2="266.7"/>
    <line x1="154.0" y1="266.7" x2="132.0" y2="304.8"/>
    <line x1="132.0" y1="304.8" x2="176.0" y2="304.8"/>
    <line x1="176.0" y1="304.8" x2="154.0" y2="266.7"/>
    <line x1="154.0" y1="266.7" x2="198.0" y2="266.7"/>
    <line x1="198.0" y1="266.7" x2="176.0" y2="304.8"/>
    <line x1="176.0" y1="304.8" x2="220.0" y2="304.8"/>
    <line x1="220.0" y1="304.8" x2="198.0" y2="266.7"/>
    <line x1="198.0" y1="266.7" x2="242.0" y2="266.7"/>
    <line x1="242.0" y1="266.7" x2="220.0" y2="304.8"/>
    <line x1="220.0" y1="304.8" x2="264.0" y2="304.8"/>
    <line x1="264.0" y1="304.8" x2="242.0" y2="266.7"/>
    <line x1="242.0" y1="266.7" x2="286.0" y2="266.7"/>
    <line x1="286.0" y1="266.7" x2="264.0" y2="304.8"/>
    <line x1="264.0" y1="304.8" x2="308.0" y2="304.8"/>
    <line x1="308.0" y1="304.8" x2="286.0" y2="266.7"/>
    <line x1="286.0" y1="266.7" x2="330.0" y2="266.7"/>
    <line x1="330.0" y1="266.7" x2="308.0" y2="304.8"/>
    <line x1="22.0" y1="304.8" x2="0.0" y2="342.9"/>
    <line x1="0.0" y1="342.9" x2="44.0" y2="342.9"/>
    <line x1="44.0" y1="342.9" x2="22.0" y2="304.8"/>
    <line x1="22.0" y1="304.8" x2="66.0" y2="304.8"/>
    <line x1="66.0" y1="304.8" x2="44.0" y2="342.9"/>
    <line x1="44.0" y1="342.9" x2="88.0" y2="342.9"/>
    <line x1="88.0" y1="342.9" x2="66.0" y2="304.8"/>
    <line x1="66.0" y1="304.8" x2="110.0" y2="304.8"/>
    <line x1="110.0" y1="304.8" x2="88.0" y2="342.9"/>
    <line x1="88.0" y1="342.9" x2="132.0" y2="342.9"/>
    <line x1="132.0" y1="342.9" x2="110.0" y2="304.8"/>
    <line x1="110.0" y1="304.8" x2="154.0" y2="304.8"/>
    <line x1="154.0" y1="304.8" x2="132.0" y2="342.9"/>
    <line x1="132.0" y1="342.9" x2="176.0" y2="342.9"/>
    <line x1="176.0" y1="342.9" x2="154.0" y2="304.8"/>
    <line x1="154.0" y1="304.8" x2="198.0" y2="304.8"/>
    <line x1="198.0" y1="304.8" x2="176.0" y2="342.9"/>
    <line x1="176.0" y1="342.9" x2="220.0" y2="342.9"/>
    <line x1="220.0" y1="342.9" x2="198.0" y2="304.8"/>
    <line x1="198.0" y1="304.8" x2="242.0" y2="304.8"/>
    <line x1="242.0" y1="304.8" x2="220.0" y2="342.9"/>
    <line x1="220.0" y1="342.9" x2="264.0" y2="342.9"/>
    <line x1="264.0" y1="342.9" x2="242.0" y2="304.8"/>
    <line x1="242.0" y1="304.8" x2="286.0" y2="304.8"/>
    <line x1="286.0" y1="304.8" x2="264.0" y2="342.9"/>
    <line x1="264.0" y1="342.9" x2="308.0" y2="342.9"/>
    <line x1="308.0" y1="342.9" x2="286.0" y2="304.8"/>
    <line x1="286.0" y1="304.8" x2="330.0" y2="304.8"/>
    <line x1="330.0" y1="304.8" x2="308.0" y2="342.9"/>
    <line x1="22.0" y1="342.9" x2="0.0" y2="381.1"/>
    <line x1="0.0" y1="381.1" x2="44.0" y2="381.1"/>
    <line x1="44.0" y1="381.1" x2="22.0" y2="342.9"/>
    <line x1="22.0" y1="342.9" x2="66.0" y2="342.9"/>
    <line x1="66.0" y1="342.9" x2="44.0" y2="381.1"/>
    <line x1="44.0" y1="381.1" x2="88.0" y2="381.1"/>
    <line x1="88.0" y1="381.1" x2="66.0" y2="342.9"/>
    <line x1="66.0" y1="342.9" x2="110.0" y2="342.9"/>
    <line x1="110.0" y1="342.9" x2="88.0" y2="381.1"/>
    <line x1="88.0" y1="381.1" x2="132.0" y2="381.1"/>
    <line x1="132.0" y1="381.1" x2="110.0" y2="342.9"/>
    <line x1="110.0" y1="342.9" x2="154.0" y2="342.9"/>
    <line x1="154.0" y1="342.9" x2="132.0" y2="381.1"/>
    <line x1="132.0" y1="381.1" x2="176.0" y2="381.1"/>
    <line x1="176.0" y1="381.1" x2="154.0" y2="342.9"/>
    <line x1="154.0" y1="342.9" x2="198.0" y2="342.9"/>
    <line x1="198.0" y1="342.9" x2="176.0" y2="381.1"/>
    <line x1="176.0" y1="381.1" x2="220.0" y2="381.1"/>
    <line x1="220.0" y1="381.1" x2="198.0" y2="342.9"/>
    <line x1="198.0" y1="342.9" x2="242.0" y2="342.9"/>
    <line x1="242.0" y1="342.9" x2="220.0" y2="381.1"/>
    <line x1="220.0" y1="381.1" x2="264.0" y2="381.1"/>
    <line x1="264.0" y1="381.1" x2="242.0" y2="342.9"/>
    <line x1="242.0" y1="342.9" x2="286.0" y2="342.9"/>
    <line x1="286.0" y1="342.9" x2="264.0" y2="381.1"/>
    <line x1="264.0" y1="381.1" x2="308.0" y2="381.1"/>
    <line x1="308.0" y1="381.1" x2="286.0" y2="342.9"/>
    <line x1="286.0" y1="342.9" x2="330.0" y2="342.9"/>
    <line x1="330.0" y1="342.9" x2="308.0" y2="381.1"/>
    <line x1="22.0" y1="381.1" x2="0.0" y2="419.2"/>
    <line x1="0.0" y1="419.2" x2="44.0" y2="419.2"/>
    <line x1="44.0" y1="419.2" x2="22.0" y2="381.1"/>
    <line x1="22.0" y1="381.1" x2="66.0" y2="381.1"/>
    <line x1="66.0" y1="381.1" x2="44.0" y2="419.2"/>
    <line x1="44.0" y1="419.2" x2="88.0" y2="419.2"/>
    <line x1="88.0" y1="419.2" x2="66.0" y2="381.1"/>
    <line x1="66.0" y1="381.1" x2="110.0" y2="381.1"/>
    <line x1="110.0" y1="381.1" x2="88.0" y2="419.2"/>
    <line x1="88.0" y1="419.2" x2="132.0" y2="419.2"/>
    <line x1="132.0" y1="419.2" x2="110.0" y2="381.1"/>
    <line x1="110.0" y1="381.1" x2="154.0" y2="381.1"/>
    <line x1="154.0" y1="381.1" x2="132.0" y2="419.2"/>
    <line x1="132.0" y1="419.2" x2="176.0" y2="419.2"/>
    <line x1="176.0" y1="419.2" x2="154.0" y2="381.1"/>
    <line x1="154.0" y1="381.1" x2="198.0" y2="381.1"/>
    <line x1="198.0" y1="381.1" x2="176.0" y2="419.2"/>
    <line x1="176.0" y1="419.2" x2="220.0" y2="419.2"/>
    <line x1="220.0" y1="419.2" x2="198.0" y2="381.1"/>
    <line x1="198.0" y1="381.1" x2="242.0" y2="381.1"/>
    <line x1="242.0" y1="381.1" x2="220.0" y2="419.2"/>
    <line x1="220.0" y1="419.2" x2="264.0" y2="419.2"/>
    <line x1="264.0" y1="419.2" x2="242.0" y2="381.1"/>
    <line x1="242.0" y1="381.1" x2="286.0" y2="381.1"/>
    <line x1="286.0" y1="381.1" x2="264.0" y2="419.2"/>
    <line x1="264.0" y1="419.2" x2="308.0" y2="419.2"/>
    <line x1="308.0" y1="419.2" x2="286.0" y2="381.1"/>
    <line x1="286.0" y1="381.1" x2="330.0" y2="381.1"/>
    <line x1="330.0" y1="381.1" x2="308.0" y2="419.2"/>
    <line x1="22.0" y1="419.2" x2="0.0" y2="457.3"/>
    <line x1="0.0" y1="457.3" x2="44.0" y2="457.3"/>
    <line x1="44.0" y1="457.3" x2="22.0" y2="419.2"/>
    <line x1="22.0" y1="419.2" x2="66.0" y2="419.2"/>
    <line x1="66.0" y1="419.2" x2="44.0" y2="457.3"/>
    <line x1="44.0" y1="457.3" x2="88.0" y2="457.3"/>
    <line x1="88.0" y1="457.3" x2="66.0" y2="419.2"/>
    <line x1="66.0" y1="419.2" x2="110.0" y2="419.2"/>
    <line x1="110.0" y1="419.2" x2="88.0" y2="457.3"/>
    <line x1="88.0" y1="457.3" x2="132.0" y2="457.3"/>
    <line x1="132.0" y1="457.3" x2="110.0" y2="419.2"/>
    <line x1="110.0" y1="419.2" x2="154.0" y2="419.2"/>
    <line x1="154.0" y1="419.2" x2="132.0" y2="457.3"/>
    <line x1="132.0" y1="457.3" x2="176.0" y2="457.3"/>
    <line x1="176.0" y1="457.3" x2="154.0" y2="419.2"/>
    <line x1="154.0" y1="419.2" x2="198.0" y2="419.2"/>
    <line x1="198.0" y1="419.2" x2="176.0" y2="457.3"/>
    <line x1="176.0" y1="457.3" x2="220.0" y2="457.3"/>
    <line x1="220.0" y1="457.3" x2="198.0" y2="419.2"/>
    <line x1="198.0" y1="419.2" x2="242.0" y2="419.2"/>
    <line x1="242.0" y1="419.2" x2="220.0" y2="457.3"/>
    <line x1="220.0" y1="457.3" x2="264.0" y2="457.3"/>
    <line x1="264.0" y1="457.3" x2="242.0" y2="419.2"/>
    <line x1="242.0" y1="419.2" x2="286.0" y2="419.2"/>
    <line x1="286.0" y1="419.2" x2="264.0" y2="457.3"/>
    <line x1="264.0" y1="457.3" x2="308.0" y2="457.3"/>
    <line x1="308.0" y1="457.3" x2="286.0" y2="419.2"/>
    <line x1="286.0" y1="419.2" x2="330.0" y2="419.2"/>
    <line x1="330.0" y1="419.2" x2="308.0" y2="457.3"/>
    <line x1="22.0" y1="457.3" x2="0.0" y2="495.4"/>
    <line x1="0.0" y1="495.4" x2="44.0" y2="495.4"/>
    <line x1="44.0" y1="495.4" x2="22.0" y2="457.3"/>
    <line x1="22.0" y1="457.3" x2="66.0" y2="457.3"/>
    <line x1="66.0" y1="457.3" x2="44.0" y2="495.4"/>
    <line x1="44.0" y1="495.4" x2="88.0" y2="495.4"/>
    <line x1="88.0" y1="495.4" x2="66.0" y2="457.3"/>
    <line x1="66.0" y1="457.3" x2="110.0" y2="457.3"/>
    <line x1="110.0" y1="457.3" x2="88.0" y2="495.4"/>
    <line x1="88.0" y1="495.4" x2="132.0" y2="495.4"/>
    <line x1="132.0" y1="495.4" x2="110.0" y2="457.3"/>
    <line x1="110.0" y1="457.3" x2="154.0" y2="457.3"/>
    <line x1="154.0" y1="457.3" x2="132.0" y2="495.4"/>
    <line x1="132.0" y1="495.4" x2="176.0" y2="495.4"/>
    <line x1="176.0" y1="495.4" x2="154.0" y2="457.3"/>
    <line x1="154.0" y1="457.3" x2="198.0" y2="457.3"/>
    <line x1="198.0" y1="457.3" x2="176.0" y2="495.4"/>
    <line x1="176.0" y1="495.4" x2="220.0" y2="495.4"/>
    <line x1="220.0" y1="495.4" x2="198.0" y2="457.3"/>
    <line x1="198.0" y1="457.3" x2="242.0" y2="457.3"/>
    <line x1="242.0" y1="457.3" x2="220.0" y2="495.4"/>
    <line x1="220.0" y1="495.4" x2="264.0" y2="495.4"/>
    <line x1="264.0" y1="495.4" x2="242.0" y2="457.3"/>
    <line x1="242.0" y1="457.3" x2="286.0" y2="457.3"/>
    <line x1="286.0" y1="457.3" x2="264.0" y2="495.4"/>
    <line x1="264.0" y1="495.4" x2="308.0" y2="495.4"/>
    <line x1="308.0" y1="495.4" x2="286.0" y2="457.3"/>
    <line x1="286.0" y1="457.3" x2="330.0" y2="457.3"/>
    <line x1="330.0" y1="457.3" x2="308.0" y2="495.4"/>
    <line x1="22.0" y1="495.4" x2="0.0" y2="533.5"/>
    <line x1="0.0" y1="533.5" x2="44.0" y2="533.5"/>
    <line x1="44.0" y1="533.5" x2="22.0" y2="495.4"/>
    <line x1="22.0" y1="495.4" x2="66.0" y2="495.4"/>
    <line x1="66.0" y1="495.4" x2="44.0" y2="533.5"/>
    <line x1="44.0" y1="533.5" x2="88.0" y2="533.5"/>
    <line x1="88.0" y1="533.5" x2="66.0" y2="495.4"/>
    <line x1="66.0" y1="495.4" x2="110.0" y2="495.4"/>
    <line x1="110.0" y1="495.4" x2="88.0" y2="533.5"/>
    <line x1="88.0" y1="533.5" x2="132.0" y2="533.5"/>
    <line x1="132.0" y1="533.5" x2="110.0" y2="495.4"/>
    <line x1="110.0" y1="495.4" x2="154.0" y2="495.4"/>
    <line x1="154.0" y1="495.4" x2="132.0" y2="533.5"/>
    <line x1="132.0" y1="533.5" x2="176.0" y2="533.5"/>
    <line x1="176.0" y1="533.5" x2="154.0" y2="495.4"/>
    <line x1="154.0" y1="495.4" x2="198.0" y2="495.4"/>
    <line x1="198.0" y1="495.4" x2="176.0" y2="533.5"/>
    <line x1="176.0" y1="533.5" x2="220.0" y2="533.5"/>
    <line x1="220.0" y1="533.5" x2="198.0" y2="495.4"/>
    <line x1="198.0" y1="495.4" x2="242.0" y2="495.4"/>
    <line x1="242.0" y1="495.4" x2="220.0" y2="533.5"/>
    <line x1="220.0" y1="533.5" x2="264.0" y2="533.5"/>
    <line x1="264.0" y1="533.5" x2="242.0" y2="495.4"/>
    <line x1="242.0" y1="495.4" x2="286.0" y2="495.4"/>
    <line x1="286.0" y1="495.4" x2="264.0" y2="533.5"/>
    <line x1="264.0" y1="533.5" x2="308.0" y2="533.5"/>
    <line x1="308.0" y1="533.5" x2="286.0" y2="495.4"/>
    <line x1="286.0" y1="495.4" x2="330.0" y2="495.4"/>
    <line x1="330.0" y1="495.4" x2="308.0" y2="533.5"/>
    <line x1="22.0" y1="533.5" x2="0.0" y2="571.6"/>
    <line x1="0.0" y1="571.6" x2="44.0" y2="571.6"/>
    <line x1="44.0" y1="571.6" x2="22.0" y2="533.5"/>
    <line x1="22.0" y1="533.5" x2="66.0" y2="533.5"/>
    <line x1="66.0" y1="533.5" x2="44.0" y2="571.6"/>
    <line x1="44.0" y1="571.6" x2="88.0" y2="571.6"/>
    <line x1="88.0" y1="571.6" x2="66.0" y2="533.5"/>
    <line x1="66.0" y1="533.5" x2="110.0" y2="533.5"/>
    <line x1="110.0" y1="533.5" x2="88.0" y2="571.6"/>
    <line x1="88.0" y1="571.6" x2="132.0" y2="571.6"/>
    <line x1="132.0" y1="571.6" x2="110.0" y2="533.5"/>
    <line x1="110.0" y1="533.5" x2="154.0" y2="533.5"/>
    <line x1="154.0" y1="533.5" x2="132.0" y2="571.6"/>
    <line x1="132.0" y1="571.6" x2="176.0" y2="571.6"/>
    <line x1="176.0" y1="571.6" x2="154.0" y2="533.5"/>
    <line x1="154.0" y1="533.5" x2="198.0" y2="533.5"/>
    <line x1="198.0" y1="533.5" x2="176.0" y2="571.6"/>
    <line x1="176.0" y1="571.6" x2="220.0" y2="571.6"/>
    <line x1="220.0" y1="571.6" x2="198.0" y2="533.5"/>
    <line x1="198.0" y1="533.5" x2="242.0" y2="533.5"/>
    <line x1="242.0" y1="533.5" x2="220.0" y2="571.6"/>
    <line x1="220.0" y1="571.6" x2="264.0" y2="571.6"/>
    <line x1="264.0" y1="571.6" x2="242.0" y2="533.5"/>
    <line x1="242.0" y1="533.5" x2="286.0" y2="533.5"/>
    <line x1="286.0" y1="533.5" x2="264.0" y2="571.6"/>
    <line x1="264.0" y1="571.6" x2="308.0" y2="571.6"/>
    <line x1="308.0" y1="571.6" x2="286.0" y2="533.5"/>
    <line x1="286.0" y1="533.5" x2="330.0" y2="533.5"/>
    <line x1="330.0" y1="533.5" x2="308.0" y2="571.6"/>
    <line x1="22.0" y1="571.6" x2="0.0" y2="609.7"/>
    <line x1="0.0" y1="609.7" x2="44.0" y2="609.7"/>
    <line x1="44.0" y1="609.7" x2="22.0" y2="571.6"/>
    <line x1="22.0" y1="571.6" x2="66.0" y2="571.6"/>
    <line x1="66.0" y1="571.6" x2="44.0" y2="609.7"/>
    <line x1="44.0" y1="609.7" x2="88.0" y2="609.7"/>
    <line x1="88.0" y1="609.7" x2="66.0" y2="571.6"/>
    <line x1="66.0" y1="571.6" x2="110.0" y2="571.6"/>
    <line x1="110.0" y1="571.6" x2="88.0" y2="609.7"/>
    <line x1="88.0" y1="609.7" x2="132.0" y2="609.7"/>
    <line x1="132.0" y1="609.7" x2="110.0" y2="571.6"/>
    <line x1="110.0" y1="571.6" x2="154.0" y2="571.6"/>
    <line x1="154.0" y1="571.6" x2="132.0" y2="609.7"/>
    <line x1="132.0" y1="609.7" x2="176.0" y2="609.7"/>
    <line x1="176.0" y1="609.7" x2="154.0" y2="571.6"/>
    <line x1="154.0" y1="571.6" x2="198.0" y2="571.6"/>
    <line x1="198.0" y1="571.6" x2="176.0" y2="609.7"/>
    <line x1="176.0" y1="609.7" x2="220.0" y2="609.7"/>
    <line x1="220.0" y1="609.7" x2="198.0" y2="571.6"/>
    <line x1="198.0" y1="571.6" x2="242.0" y2="571.6"/>
    <line x1="242.0" y1="571.6" x2="220.0" y2="609.7"/>
    <line x1="220.0" y1="609.7" x2="264.0" y2="609.7"/>
    <line x1="264.0" y1="609.7" x2="242.0" y2="571.6"/>
    <line x1="242.0" y1="571.6" x2="286.0" y2="571.6"/>
    <line x1="286.0" y1="571.6" x2="264.0" y2="609.7"/>
    <line x1="264.0" y1="609.7" x2="308.0" y2="609.7"/>
    <line x1="308.0" y1="609.7" x2="286.0" y2="571.6"/>
    <line x1="286.0" y1="571.6" x2="330.0" y2="571.6"/>
    <line x1="330.0" y1="571.6" x2="308.0" y2="609.7"/>
    <line x1="22.0" y1="609.7" x2="0.0" y2="647.8"/>
    <line x1="0.0" y1="647.8" x2="44.0" y2="647.8"/>
    <line x1="44.0" y1="647.8" x2="22.0" y2="609.7"/>
    <line x1="22.0" y1="609.7" x2="66.0" y2="609.7"/>
    <line x1="66.0" y1="609.7" x2="44.0" y2="647.8"/>
    <line x1="44.0" y1="647.8" x2="88.0" y2="647.8"/>
    <line x1="88.0" y1="647.8" x2="66.0" y2="609.7"/>
    <line x1="66.0" y1="609.7" x2="110.0" y2="609.7"/>
    <line x1="110.0" y1="609.7" x2="88.0" y2="647.8"/>
    <line x1="88.0" y1="647.8" x2="132.0" y2="647.8"/>
    <line x1="132.0" y1="647.8" x2="110.0" y2="609.7"/>
    <line x1="110.0" y1="609.7" x2="154.0" y2="609.7"/>
    <line x1="154.0" y1="609.7" x2="132.0" y2="647.8"/>
    <line x1="132.0" y1="647.8" x2="176.0" y2="647.8"/>
    <line x1="176.0" y1="647.8" x2="154.0" y2="609.7"/>
    <line x1="154.0" y1="609.7" x2="198.0" y2="609.7"/>
    <line x1="198.0" y1="609.7" x2="176.0" y2="647.8"/>
    <line x1="176.0" y1="647.8" x2="220.0" y2="647.8"/>
    <line x1="220.0" y1="647.8" x2="198.0" y2="609.7"/>
    <line x1="198.0" y1="609.7" x2="242.0" y2="609.7"/>
    <line x1="242.0" y1="609.7" x2="220.0" y2="647.8"/>
    <line x1="220.0" y1="647.8" x2="264.0" y2="647.8"/>
    <line x1="264.0" y1="647.8" x2="242.0" y2="609.7"/>
    <line x1="242.0" y1="609.7" x2="286.0" y2="609.7"/>
    <line x1="286.0" y1="609.7" x2="264.0" y2="647.8"/>
    <line x1="264.0" y1="647.8" x2="308.0" y2="647.8"/>
    <line x1="308.0" y1="647.8" x2="286.0" y2="609.7"/>
    <line x1="286.0" y1="609.7" x2="330.0" y2="609.7"/>
    <line x1="330.0" y1="609.7" x2="308.0" y2="647.8"/>
    <line x1="22.0" y1="647.8" x2="0.0" y2="685.9"/>
    <line x1="0.0" y1="685.9" x2="44.0" y2="685.9"/>
    <line x1="44.0" y1="685.9" x2="22.0" y2="647.8"/>
    <line x1="22.0" y1="647.8" x2="66.0" y2="647.8"/>
    <line x1="66.0" y1="647.8" x2="44.0" y2="685.9"/>
    <line x1="44.0" y1="685.9" x2="88.0" y2="685.9"/>
    <line x1="88.0" y1="685.9" x2="66.0" y2="647.8"/>
    <line x1="66.0" y1="647.8" x2="110.0" y2="647.8"/>
    <line x1="110.0" y1="647.8" x2="88.0" y2="685.9"/>
    <line x1="88.0" y1="685.9" x2="132.0" y2="685.9"/>
    <line x1="132.0" y1="685.9" x2="110.0" y2="647.8"/>
    <line x1="110.0" y1="647.8" x2="154.0" y2="647.8"/>
    <line x1="154.0" y1="647.8" x2="132.0" y2="685.9"/>
    <line x1="132.0" y1="685.9" x2="176.0" y2="685.9"/>
    <line x1="176.0" y1="685.9" x2="154.0" y2="647.8"/>
    <line x1="154.0" y1="647.8" x2="198.0" y2="647.8"/>
    <line x1="198.0" y1="647.8" x2="176.0" y2="685.9"/>
    <line x1="176.0" y1="685.9" x2="220.0" y2="685.9"/>
    <line x1="220.0" y1="685.9" x2="198.0" y2="647.8"/>
    <line x1="198.0" y1="647.8" x2="242.0" y2="647.8"/>
    <line x1="242.0" y1="647.8" x2="220.0" y2="685.9"/>
    <line x1="220.0" y1="685.9" x2="264.0" y2="685.9"/>
    <line x1="264.0" y1="685.9" x2="242.0" y2="647.8"/>
    <line x1="242.0" y1="647.8" x2="286.0" y2="647.8"/>
    <line x1="286.0" y1="647.8" x2="264.0" y2="685.9"/>
    <line x1="264.0" y1="685.9" x2="308.0" y2="685.9"/>
    <line x1="308.0" y1="685.9" x2="286.0" y2="647.8"/>
    <line x1="286.0" y1="647.8" x2="330.0" y2="647.8"/>
    <line x1="330.0" y1="647.8" x2="308.0" y2="685.9"/>
    <line x1="22.0" y1="685.9" x2="0.0" y2="724.0"/>
    <line x1="0.0" y1="724.0" x2="44.0" y2="724.0"/>
    <line x1="44.0" y1="724.0" x2="22.0" y2="685.9"/>
    <line x1="22.0" y1="685.9" x2="66.0" y2="685.9"/>
    <line x1="66.0" y1="685.9" x2="44.0" y2="724.0"/>
    <line x1="44.0" y1="724.0" x2="88.0" y2="724.0"/>
    <line x1="88.0" y1="724.0" x2="66.0" y2="685.9"/>
    <line x1="66.0" y1="685.9" x2="110.0" y2="685.9"/>
    <line x1="110.0" y1="685.9" x2="88.0" y2="724.0"/>
    <line x1="88.0" y1="724.0" x2="132.0" y2="724.0"/>
    <line x1="132.0" y1="724.0" x2="110.0" y2="685.9"/>
    <line x1="110.0" y1="685.9" x2="154.0" y2="685.9"/>
    <line x1="154.0" y1="685.9" x2="132.0" y2="724.0"/>
    <line x1="132.0" y1="724.0" x2="176.0" y2="724.0"/>
    <line x1="176.0" y1="724.0" x2="154.0" y2="685.9"/>
    <line x1="154.0" y1="685.9" x2="198.0" y2="685.9"/>
    <line x1="198.0" y1="685.9" x2="176.0" y2="724.0"/>
    <line x1="176.0" y1="724.0" x2="220.0" y2="724.0"/>
    <line x1="220.0" y1="724.0" x2="198.0" y2="685.9"/>
    <line x1="198.0" y1="685.9" x2="242.0" y2="685.9"/>
    <line x1="242.0" y1="685.9" x2="220.0" y2="724.0"/>
    <line x1="220.0" y1="724.0" x2="264.0" y2="724.0"/>
    <line x1="264.0" y1="724.0" x2="242.0" y2="685.9"/>
    <line x1="242.0" y1="685.9" x2="286.0" y2="685.9"/>
    <line x1="286.0" y1="685.9" x2="264.0" y2="724.0"/>
    <line x1="264.0" y1="724.0" x2="308.0" y2="724.0"/>
    <line x1="308.0" y1="724.0" x2="286.0" y2="685.9"/>
    <line x1="286.0" y1="685.9" x2="330.0" y2="685.9"/>
    <line x1="330.0" y1="685.9" x2="308.0" y2="724.0"/>
    <line x1="22.0" y1="724.0" x2="0.0" y2="762.1"/>
    <line x1="0.0" y1="762.1" x2="44.0" y2="762.1"/>
    <line x1="44.0" y1="762.1" x2="22.0" y2="724.0"/>
    <line x1="22.0" y1="724.0" x2="66.0" y2="724.0"/>
    <line x1="66.0" y1="724.0" x2="44.0" y2="762.1"/>
    <line x1="44.0" y1="762.1" x2="88.0" y2="762.1"/>
    <line x1="88.0" y1="762.1" x2="66.0" y2="724.0"/>
    <line x1="66.0" y1="724.0" x2="110.0" y2="724.0"/>
    <line x1="110.0" y1="724.0" x2="88.0" y2="762.1"/>
    <line x1="88.0" y1="762.1" x2="132.0" y2="762.1"/>
    <line x1="132.0" y1="762.1" x2="110.0" y2="724.0"/>
    <line x1="110.0" y1="724.0" x2="154.0" y2="724.0"/>
    <line x1="154.0" y1="724.0" x2="132.0" y2="762.1"/>
    <line x1="132.0" y1="762.1" x2="176.0" y2="762.1"/>
    <line x1="176.0" y1="762.1" x2="154.0" y2="724.0"/>
    <line x1="154.0" y1="724.0" x2="198.0" y2="724.0"/>
    <line x1="198.0" y1="724.0" x2="176.0" y2="762.1"/>
    <line x1="176.0" y1="762.1" x2="220.0" y2="762.1"/>
    <line x1="220.0" y1="762.1" x2="198.0" y2="724.0"/>
    <line x1="198.0" y1="724.0" x2="242.0" y2="724.0"/>
    <line x1="242.0" y1="724.0" x2="220.0" y2="762.1"/>
    <line x1="220.0" y1="762.1" x2="264.0" y2="762.1"/>
    <line x1="264.0" y1="762.1" x2="242.0" y2="724.0"/>
    <line x1="242.0" y1="724.0" x2="286.0" y2="724.0"/>
    <line x1="286.0" y1="724.0" x2="264.0" y2="762.1"/>
    <line x1="264.0" y1="762.1" x2="308.0" y2="762.1"/>
    <line x1="308.0" y1="762.1" x2="286.0" y2="724.0"/>
    <line x1="286.0" y1="724.0" x2="330.0" y2="724.0"/>
    <line x1="330.0" y1="724.0" x2="308.0" y2="762.1"/>
  </g>
</svg>